{
  "source": "C:\\Users\\Peter\\Desktop\\stuff\\MIUN\\quantitative_research\\video_compression\\videos\\BVI-HD\\BVI-HD_CDVL_videos\\ORIG\\SmokeGuns_1920x1080_60fps.mp4",
  "output": "C:\\Users\\Peter\\Desktop\\stuff\\MIUN\\quantitative_research\\video_compression\\compressed_videos\\BVI-HD\\av1\\8\\SmokeGuns_1920x1080_60fps_av1.mkv",
  "codec": "av1",
  "ok": "Input #0, mov,mp4,m4a,3gp,3g2,mj2, from 'C:\\Users\\Peter\\Desktop\\stuff\\MIUN\\quantitative_research\\video_compression\\videos\\BVI-HD\\BVI-HD_CDVL_videos\\ORIG\\SmokeGuns_1920x1080_60fps.mp4':\n  Metadata:\n    major_brand     : isom\n    minor_version   : 512\n    compatible_brands: isomiso2avc1mp41\n    encoder         : Lavf54.28.101\n  Duration: 00:00:05.00, start: 0.000000, bitrate: 384353 kb/s\n  Stream #0:0[0x1](und): Video: h264 (High 4:4:4 Predictive) (avc1 / 0x31637661), yuv420p(progressive), 1920x1080, 384348 kb/s, 60 fps, 60 tbr, 60 tbn (default)\n    Metadata:\n      handler_name    : VideoHandler\n      vendor_id       : [0][0][0][0]\n[out#0/matroska @ 00000218099f96c0] Codec AVOption b:a (set bitrate (in bits/s)) has not been used for any stream. The most likely reason is either wrong type (e.g. a video option with no video streams) or that it is a private option of some decoder which was not actually used for any stream.\nStream mapping:\n  Stream #0:0 -> #0:0 (h264 (native) -> av1 (libsvtav1))\nPress [q] to stop, [?] for help\nSvt[info]: -------------------------------------------\nSvt[info]: SVT [version]:\tSVT-AV1 Encoder Lib v3.1.0-19-g6ecfe8ec\nSvt[info]: SVT [build]  :\tGCC 15.2.0\t 64 bit\nSvt[info]: LIB Build date: Aug 17 2025 11:37:13\nSvt[info]: -------------------------------------------\nSvt[info]: Level of Parallelism: 5\nSvt[info]: Number of PPCS 93\nSvt[info]: [asm level on system : up to avx2]\nSvt[info]: [asm level selected : up to avx2]\nSvt[info]: -------------------------------------------\nSvt[info]: SVT [config]: main profile\ttier (auto)\tlevel (auto)\nSvt[info]: SVT [config]: width / height / fps numerator / fps denominator \t\t: 1920 / 1080 / 60 / 1\nSvt[info]: SVT [config]: bit-depth / color format \t\t\t\t\t: 8 / YUV420\nSvt[info]: SVT [config]: preset / tune / pred struct \t\t\t\t\t: 4 / PSNR / random access\nSvt[info]: SVT [config]: gop size / mini-gop size / key-frame type \t\t\t: 321 / 16 / key frame\nSvt[info]: SVT [config]: BRC mode / target bitrate (kbps)\t\t\t\t: VBR / 8000 \nSvt[info]: SVT [config]: AQ mode / Variance Boost \t\t\t\t\t: 2 / 0\nSvt[info]: SVT [config]: sharpness / luminance-based QP bias \t\t\t\t: 0 / 0\nSvt[info]: SVT [config]: QP scale compress strength \t\t\t\t\t: 0\nSvt[info]: -------------------------------------------\nOutput #0, matroska, to 'C:\\Users\\Peter\\Desktop\\stuff\\MIUN\\quantitative_research\\video_compression\\compressed_videos\\BVI-HD\\av1\\8\\SmokeGuns_1920x1080_60fps_av1.mkv':\n  Metadata:\n    major_brand     : isom\n    minor_version   : 512\n    compatible_brands: isomiso2avc1mp41\n    encoder         : Lavf62.3.100\n  Stream #0:0(und): Video: av1 (AV01 / 0x31305641), yuv420p(tv, progressive), 1920x1080, q=2-31, 8000 kb/s, 60 fps, 1k tbn (default)\n    Metadata:\n      encoder         : Lavc62.11.100 libsvtav1\n      handler_name    : VideoHandler\n      vendor_id       : [0][0][0][0]\n    Side data:\n      cpb: bitrate max/min/avg: 0/0/8000000 buffer size: 8000000 vbv_delay: N/A\nframe=    0 fps=0.0 q=0.0 size=       0KiB time=N/A bitrate=N/A speed=N/A elapsed=0:00:01.11    \nframe=    0 fps=0.0 q=0.0 size=       0KiB time=N/A bitrate=N/A speed=N/A elapsed=0:00:01.74    \nframe=    0 fps=0.0 q=0.0 size=       0KiB time=N/A bitrate=N/A speed=N/A elapsed=0:00:02.34    \nframe=    0 fps=0.0 q=0.0 size=       0KiB time=N/A bitrate=N/A speed=N/A elapsed=0:00:02.99    \nframe=    0 fps=0.0 q=0.0 size=       0KiB time=N/A bitrate=N/A speed=N/A elapsed=0:00:03.59    \nframe=    1 fps=0.2 q=6.0 size=       1KiB time=00:00:00.00 bitrate=N/A speed=   0x elapsed=0:00:04.16    \nframe=    1 fps=0.2 q=6.0 size=       1KiB time=00:00:00.00 bitrate=N/A speed=   0x elapsed=0:00:04.71    \nframe=    1 fps=0.2 q=6.0 size=       1KiB time=00:00:00.00 bitrate=N/A speed=   0x elapsed=0:00:05.25    \nframe=    1 fps=0.2 q=6.0 size=       1KiB time=00:00:00.00 bitrate=N/A speed=   0x elapsed=0:00:05.78    \nframe=    3 fps=0.5 q=26.0 size=       1KiB time=00:00:00.03 bitrate= 170.9kbits/s speed=0.00523x elapsed=0:00:06.36    \nframe=    7 fps=1.0 q=25.0 size=       1KiB time=00:00:00.10 bitrate=  57.0kbits/s speed=0.0145x elapsed=0:00:06.88    \nframe=    9 fps=1.2 q=20.0 size=       1KiB time=00:00:00.13 bitrate=  42.7kbits/s speed=0.0179x elapsed=0:00:07.43    \nframe=   12 fps=1.5 q=21.0 size=       1KiB time=00:00:00.16 bitrate=  34.2kbits/s speed=0.0209x elapsed=0:00:07.96    \nframe=   15 fps=1.8 q=24.0 size=       1KiB time=00:00:00.21 bitrate=  26.3kbits/s speed=0.0254x elapsed=0:00:08.52    \nframe=   19 fps=2.1 q=25.0 size=       1KiB time=00:00:00.30 bitrate=  19.0kbits/s speed=0.0331x elapsed=0:00:09.05    \nframe=   22 fps=2.3 q=21.0 size=       1KiB time=00:00:00.35 bitrate=  16.3kbits/s speed=0.0366x elapsed=0:00:09.57    \nframe=   24 fps=2.4 q=21.0 size=       1KiB time=00:00:00.38 bitrate=  14.9kbits/s speed=0.038x elapsed=0:00:10.09    \nframe=   27 fps=2.5 q=25.0 size=       1KiB time=00:00:00.43 bitrate=  13.1kbits/s speed=0.0408x elapsed=0:00:10.62    \nframe=   30 fps=2.7 q=21.0 size=       1KiB time=00:00:00.48 bitrate=  11.8kbits/s speed=0.0432x elapsed=0:00:11.19    \nframe=   35 fps=3.0 q=25.0 size=       1KiB time=00:00:00.56 bitrate=  10.1kbits/s speed=0.048x elapsed=0:00:11.80    \nframe=   38 fps=3.1 q=19.0 size=       1KiB time=00:00:00.61 bitrate=   9.2kbits/s speed=0.0499x elapsed=0:00:12.36    \nframe=   40 fps=3.1 q=19.0 size=       1KiB time=00:00:00.63 bitrate=   9.0kbits/s speed=0.0491x elapsed=0:00:12.89    \nframe=   43 fps=3.2 q=24.0 size=       1KiB time=00:00:00.70 bitrate=   8.1kbits/s speed=0.0521x elapsed=0:00:13.43    \nframe=   47 fps=3.4 q=23.0 size=       1KiB time=00:00:00.76 bitrate=   7.4kbits/s speed=0.0548x elapsed=0:00:13.97    \nframe=   51 fps=3.5 q=22.0 size=       1KiB time=00:00:00.83 bitrate=   6.8kbits/s speed=0.0574x elapsed=0:00:14.52    \nframe=   54 fps=3.6 q=20.0 size=       1KiB time=00:00:00.86 bitrate=   6.6kbits/s speed=0.0575x elapsed=0:00:15.06    \nframe=   55 fps=3.5 q=22.0 size=       1KiB time=00:00:00.90 bitrate=   6.3kbits/s speed=0.0577x elapsed=0:00:15.60    \nframe=   58 fps=3.6 q=18.0 size=       1KiB time=00:00:00.95 bitrate=   6.0kbits/s speed=0.0589x elapsed=0:00:16.13    \nframe=   60 fps=3.6 q=19.0 size=       1KiB time=00:00:00.98 bitrate=   5.8kbits/s speed=0.0589x elapsed=0:00:16.70    \nframe=   64 fps=3.7 q=19.0 size=       1KiB time=00:00:01.05 bitrate=   5.4kbits/s speed=0.0607x elapsed=0:00:17.28    \nframe=   68 fps=3.8 q=18.0 size=       1KiB time=00:00:01.11 bitrate=   5.1kbits/s speed=0.0627x elapsed=0:00:17.81    \nframe=   70 fps=3.8 q=19.0 size=       1KiB time=00:00:01.15 bitrate=   5.0kbits/s speed=0.0626x elapsed=0:00:18.37    \nframe=   72 fps=3.8 q=19.0 size=       1KiB time=00:00:01.18 bitrate=   4.8kbits/s speed=0.0626x elapsed=0:00:18.90    \nframe=   76 fps=3.9 q=18.0 size=       1KiB time=00:00:01.25 bitrate=   4.6kbits/s speed=0.0643x elapsed=0:00:19.43    \nframe=   79 fps=3.9 q=24.0 size=       1KiB time=00:00:01.28 bitrate=   4.4kbits/s speed=0.0641x elapsed=0:00:20.01    \nframe=   83 fps=4.0 q=24.0 size=       1KiB time=00:00:01.36 bitrate=   4.2kbits/s speed=0.0664x elapsed=0:00:20.56    \nframe=   86 fps=4.1 q=20.0 size=       1KiB time=00:00:01.41 bitrate=   4.0kbits/s speed=0.0671x elapsed=0:00:21.11    \nframe=   88 fps=4.1 q=20.0 size=       1KiB time=00:00:01.43 bitrate=   4.0kbits/s speed=0.0662x elapsed=0:00:21.65    \nframe=   91 fps=4.1 q=24.0 size=       1KiB time=00:00:01.50 bitrate=   3.8kbits/s speed=0.0675x elapsed=0:00:22.23    \nframe=   95 fps=4.2 q=24.0 size=       1KiB time=00:00:01.55 bitrate=   3.7kbits/s speed=0.068x elapsed=0:00:22.78    \nframe=   97 fps=4.1 q=5.0 size=       1KiB time=00:00:01.60 bitrate=   3.6kbits/s speed=0.0684x elapsed=0:00:23.38    \nframe=  101 fps=4.2 q=23.0 size=       1KiB time=00:00:01.66 bitrate=   3.4kbits/s speed=0.0696x elapsed=0:00:23.94    \nframe=  103 fps=4.2 q=25.0 size=       1KiB time=00:00:01.70 bitrate=   3.4kbits/s speed=0.0694x elapsed=0:00:24.50    \nframe=  106 fps=4.2 q=27.0 size=       1KiB time=00:00:01.75 bitrate=   3.3kbits/s speed=0.0698x elapsed=0:00:25.05    \nframe=  109 fps=4.3 q=21.0 size=       1KiB time=00:00:01.78 bitrate=   3.2kbits/s speed=0.0697x elapsed=0:00:25.58    \nframe=  114 fps=4.4 q=25.0 size=       1KiB time=00:00:01.86 bitrate=   3.1kbits/s speed=0.0713x elapsed=0:00:26.17    \nframe=  117 fps=4.4 q=23.0 size=       1KiB time=00:00:01.93 bitrate=   2.9kbits/s speed=0.0723x elapsed=0:00:26.73    \nframe=  119 fps=4.4 q=24.0 size=       1KiB time=00:00:01.96 bitrate=   2.9kbits/s speed=0.072x elapsed=0:00:27.30    \nframe=  123 fps=4.4 q=25.0 size=       1KiB time=00:00:02.03 bitrate=   2.8kbits/s speed=0.073x elapsed=0:00:27.86    \nframe=  125 fps=4.4 q=22.0 size=       1KiB time=00:00:02.06 bitrate=   2.8kbits/s speed=0.0728x elapsed=0:00:28.40    \nframe=  131 fps=4.5 q=25.0 size=       1KiB time=00:00:02.16 bitrate=   2.6kbits/s speed=0.0747x elapsed=0:00:28.99    \nframe=  134 fps=4.5 q=25.0 size=       1KiB time=00:00:02.21 bitrate=   2.6kbits/s speed=0.075x elapsed=0:00:29.54    \nframe=  136 fps=4.5 q=25.0 size=       1KiB time=00:00:02.25 bitrate=   2.5kbits/s speed=0.0748x elapsed=0:00:30.08    \nframe=  140 fps=4.6 q=25.0 size=       1KiB time=00:00:02.31 bitrate=   2.5kbits/s speed=0.0756x elapsed=0:00:30.62    \nframe=  145 fps=4.6 q=7.0 size=       1KiB time=00:00:02.40 bitrate=   2.4kbits/s speed=0.0769x elapsed=0:00:31.19    \nframe=  150 fps=4.7 q=25.0 size=       1KiB time=00:00:02.48 bitrate=   2.3kbits/s speed=0.0782x elapsed=0:00:31.74    \nframe=  152 fps=4.7 q=25.0 size=       1KiB time=00:00:02.50 bitrate=   2.3kbits/s speed=0.0774x elapsed=0:00:32.28    \nframe=  156 fps=4.7 q=25.0 size=       1KiB time=00:00:02.58 bitrate=   2.2kbits/s speed=0.0786x elapsed=0:00:32.87    \nframe=  160 fps=4.8 q=24.0 size=       1KiB time=00:00:02.65 bitrate=   2.1kbits/s speed=0.0791x elapsed=0:00:33.48    \nframe=  164 fps=4.8 q=24.0 size=       1KiB time=00:00:02.71 bitrate=   2.1kbits/s speed=0.0798x elapsed=0:00:34.04    \nframe=  167 fps=4.8 q=23.0 size=       1KiB time=00:00:02.76 bitrate=   2.1kbits/s speed=0.08x elapsed=0:00:34.59    \nframe=  170 fps=4.8 q=24.0 size=       1KiB time=00:00:02.81 bitrate=   2.0kbits/s speed=0.0801x elapsed=0:00:35.15    \nframe=  172 fps=4.8 q=20.0 size=       1KiB time=00:00:02.85 bitrate=   2.0kbits/s speed=0.0799x elapsed=0:00:35.68    \nframe=  178 fps=4.9 q=24.0 size=       1KiB time=00:00:02.95 bitrate=   1.9kbits/s speed=0.0814x elapsed=0:00:36.25    \nframe=  182 fps=4.9 q=23.0 size=       1KiB time=00:00:03.01 bitrate=   1.9kbits/s speed=0.082x elapsed=0:00:36.80    \nframe=  183 fps=4.9 q=22.0 size=       1KiB time=00:00:03.03 bitrate=   1.9kbits/s speed=0.0812x elapsed=0:00:37.34    \nframe=  187 fps=4.9 q=24.0 size=       1KiB time=00:00:03.10 bitrate=   1.8kbits/s speed=0.0819x elapsed=0:00:37.87    \nframe=  191 fps=5.0 q=24.0 size=       1KiB time=00:00:03.16 bitrate=   1.8kbits/s speed=0.0824x elapsed=0:00:38.40    \nframe=  195 fps=5.0 q=24.0 size=       1KiB time=00:00:03.23 bitrate=   1.8kbits/s speed=0.083x elapsed=0:00:38.93    \nframe=  198 fps=5.0 q=23.0 size=       1KiB time=00:00:03.28 bitrate=   1.7kbits/s speed=0.0832x elapsed=0:00:39.47    \nframe=  200 fps=5.0 q=23.0 size=       1KiB time=00:00:03.31 bitrate=   1.7kbits/s speed=0.0828x elapsed=0:00:40.06    \nframe=  205 fps=5.0 q=20.0 size=       1KiB time=00:00:03.40 bitrate=   1.7kbits/s speed=0.0837x elapsed=0:00:40.63    \nframe=  209 fps=5.1 q=7.0 size=       1KiB time=00:00:03.46 bitrate=   1.6kbits/s speed=0.0841x elapsed=0:00:41.22    \nframe=  213 fps=5.1 q=21.0 size=       1KiB time=00:00:03.53 bitrate=   1.6kbits/s speed=0.0846x elapsed=0:00:41.78    \nframe=  217 fps=5.1 q=15.0 size=       1KiB time=00:00:03.60 bitrate=   1.6kbits/s speed=0.0851x elapsed=0:00:42.32    \nframe=  221 fps=5.2 q=20.0 size=       1KiB time=00:00:03.66 bitrate=   1.6kbits/s speed=0.0855x elapsed=0:00:42.88    \nframe=  225 fps=5.2 q=7.0 size=       1KiB time=00:00:03.73 bitrate=   1.5kbits/s speed=0.086x elapsed=0:00:43.42    \nframe=  231 fps=5.3 q=22.0 size=       1KiB time=00:00:03.83 bitrate=   1.5kbits/s speed=0.0872x elapsed=0:00:43.94    \nframe=  233 fps=5.2 q=15.0 size=       1KiB time=00:00:03.86 bitrate=   1.5kbits/s speed=0.087x elapsed=0:00:44.46    \nframe=  237 fps=5.3 q=20.0 size=       1KiB time=00:00:03.93 bitrate=   1.4kbits/s speed=0.0874x elapsed=0:00:45.00    \nframe=  245 fps=5.4 q=21.0 size=       1KiB time=00:00:04.06 bitrate=   1.4kbits/s speed=0.0893x elapsed=0:00:45.56    \nframe=  249 fps=5.4 q=15.0 size=       1KiB time=00:00:04.13 bitrate=   1.4kbits/s speed=0.0896x elapsed=0:00:46.10    \nframe=  253 fps=5.4 q=20.0 size=       1KiB time=00:00:04.20 bitrate=   1.4kbits/s speed=0.0901x elapsed=0:00:46.63    \nframe=  257 fps=5.4 q=6.0 size=       1KiB time=00:00:04.26 bitrate=   1.3kbits/s speed=0.0904x elapsed=0:00:47.20    \nframe=  263 fps=5.5 q=22.0 size=       1KiB time=00:00:04.36 bitrate=   1.3kbits/s speed=0.0915x elapsed=0:00:47.73    \nframe=  265 fps=5.5 q=15.0 size=       1KiB time=00:00:04.40 bitrate=   1.3kbits/s speed=0.0911x elapsed=0:00:48.31    \nframe=  269 fps=5.5 q=19.0 size=       1KiB time=00:00:04.46 bitrate=   1.3kbits/s speed=0.0914x elapsed=0:00:48.89    \nframe=  273 fps=5.5 q=7.0 size=       1KiB time=00:00:04.53 bitrate=   1.3kbits/s speed=0.0917x elapsed=0:00:49.41    \nframe=  277 fps=5.5 q=21.0 size=       1KiB time=00:00:04.60 bitrate=   1.2kbits/s speed=0.0921x elapsed=0:00:49.92    \nframe=  281 fps=5.6 q=15.0 size=       1KiB time=00:00:04.66 bitrate=   1.2kbits/s speed=0.0925x elapsed=0:00:50.47    \nframe=  287 fps=5.6 q=25.0 size=       1KiB time=00:00:04.76 bitrate=   1.2kbits/s speed=0.0935x elapsed=0:00:50.98    \n[out#0/matroska @ 00000218099f96c0] video:4609KiB audio:0KiB subtitle:0KiB other streams:0KiB global headers:0KiB muxing overhead: 0.045829%\nframe=  300 fps=5.9 q=28.0 Lsize=    4611KiB time=00:00:04.98 bitrate=7580.3kbits/s speed=0.0973x elapsed=0:00:51.22    \n",
  "seconds": 51.94467854499817,
  "probe_out": {}
}